<?xml version="1.0" encoding="UTF-8" standalone="no"?>
<svg
   version="1.2"
   viewBox="0 0 3324.26 2128.03"
   width="3324.26"
   height="2128.03"
   id="svg80"
   sodipodi:docname="Path @4x(1).svg"
   inkscape:version="1.3 (0e150ed6c4, 2023-07-21)"
   xmlns:inkscape="http://www.inkscape.org/namespaces/inkscape"
   xmlns:sodipodi="http://sodipodi.sourceforge.net/DTD/sodipodi-0.dtd"
   xmlns="http://www.w3.org/2000/svg"
   xmlns:svg="http://www.w3.org/2000/svg">
  <sodipodi:namedview
     id="namedview80"
     pagecolor="#ffffff"
     bordercolor="#000000"
     borderopacity="0.25"
     inkscape:showpageshadow="2"
     inkscape:pageopacity="0.0"
     inkscape:pagecheckerboard="0"
     inkscape:deskcolor="#d1d1d1"
     inkscape:zoom="0.1796875"
     inkscape:cx="1775.3043"
     inkscape:cy="4477.2174"
     inkscape:window-width="1366"
     inkscape:window-height="705"
     inkscape:window-x="-8"
     inkscape:window-y="-8"
     inkscape:window-maximized="1"
     inkscape:current-layer="svg80" />
  <defs
     id="defs54">
    <linearGradient
       id="P"
       gradientUnits="userSpaceOnUse" />
    <radialGradient
       id="g1"
       cx="0"
       cy="0"
       r="1"
       href="#P"
       gradientTransform="matrix(2352.736,2486.54,-2486.54,2352.736,1129.0917,2639.011)">
      <stop
         stop-color="#3c1775"
         id="stop1" />
      <stop
         offset="1"
         stop-color="#0d094c"
         id="stop2" />
    </radialGradient>
    <radialGradient
       id="g2"
       cx="0"
       cy="0"
       r="1"
       href="#P"
       gradientTransform="matrix(869.255,-85.494,85.494,869.255,3417.061,1072.66)">
      <stop
         stop-color="#0d094c"
         id="stop3" />
      <stop
         offset="1"
         stop-color="#fff"
         id="stop4" />
    </radialGradient>
    <radialGradient
       id="g3"
       cx="0"
       cy="0"
       r="1"
       href="#P"
       gradientTransform="matrix(581.711,-57.213,57.213,581.711,2790.966,1276.158)">
      <stop
         stop-color="#0d094c"
         id="stop5" />
      <stop
         offset="1"
         stop-color="#fff"
         id="stop6" />
    </radialGradient>
    <radialGradient
       id="g4"
       cx="0"
       cy="0"
       r="1"
       href="#P"
       gradientTransform="matrix(581.711,-57.213,57.213,581.711,2548.863,1406.415)">
      <stop
         stop-color="#0d094c"
         id="stop7" />
      <stop
         offset="1"
         stop-color="#fff"
         id="stop8" />
    </radialGradient>
    <radialGradient
       id="g5"
       cx="0"
       cy="0"
       r="1"
       href="#P"
       gradientTransform="matrix(581.711,-57.213,57.213,581.711,1902.429,1393.426)">
      <stop
         stop-color="#0d094c"
         id="stop9" />
      <stop
         offset="1"
         stop-color="#fff"
         id="stop10" />
    </radialGradient>
    <radialGradient
       id="g6"
       cx="0"
       cy="0"
       r="1"
       href="#P"
       gradientTransform="matrix(814.745,-80.133,80.133,814.745,1277.305,1454.909)">
      <stop
         stop-color="#0d094c"
         id="stop11" />
      <stop
         offset="1"
         stop-color="#fff"
         id="stop12" />
    </radialGradient>
    <radialGradient
       id="g7"
       cx="0"
       cy="0"
       r="1"
       href="#P"
       gradientTransform="matrix(814.745,-80.133,80.133,814.745,872.888,1474.591)">
      <stop
         stop-color="#0d094c"
         id="stop13" />
      <stop
         offset="1"
         stop-color="#fff"
         id="stop14" />
    </radialGradient>
    <radialGradient
       id="g8"
       cx="0"
       cy="0"
       r="1"
       href="#P"
       gradientTransform="matrix(814.746,-80.133,80.133,814.746,646.633,1516.937)">
      <stop
         stop-color="#0d094c"
         id="stop15" />
      <stop
         offset="1"
         stop-color="#fff"
         id="stop16" />
    </radialGradient>
    <radialGradient
       id="g9"
       cx="0"
       cy="0"
       r="1"
       href="#P"
       gradientTransform="matrix(2597.154,2255.017,-2255.017,2597.154,1076.822,259.813)">
      <stop
         stop-color="#3c1775"
         id="stop17" />
      <stop
         offset="1"
         stop-color="#0d094c"
         id="stop18" />
    </radialGradient>
    <radialGradient
       id="g10"
       cx="0"
       cy="0"
       r="1"
       href="#P"
       gradientTransform="matrix(-873.449,0,0,-873.449,375.864,1517.978)">
      <stop
         stop-color="#0d094c"
         id="stop19" />
      <stop
         offset="1"
         stop-color="#fff"
         id="stop20" />
    </radialGradient>
    <radialGradient
       id="g11"
       cx="0"
       cy="0"
       r="1"
       href="#P"
       gradientTransform="matrix(-584.518,0,0,-584.518,1018.871,1659.216)">
      <stop
         stop-color="#0d094c"
         id="stop21" />
      <stop
         offset="1"
         stop-color="#fff"
         id="stop22" />
    </radialGradient>
    <radialGradient
       id="g12"
       cx="0"
       cy="0"
       r="1"
       href="#P"
       gradientTransform="matrix(-584.518,0,0,-584.518,1440.864,1688.95)">
      <stop
         stop-color="#0d094c"
         id="stop23" />
      <stop
         offset="1"
         stop-color="#fff"
         id="stop24" />
    </radialGradient>
    <radialGradient
       id="g13"
       cx="0"
       cy="0"
       r="1"
       href="#P"
       gradientTransform="matrix(-584.518,0,0,-584.518,1914.62,1688.95)">
      <stop
         stop-color="#0d094c"
         id="stop25" />
      <stop
         offset="1"
         stop-color="#fff"
         id="stop26" />
    </radialGradient>
    <radialGradient
       id="g14"
       cx="0"
       cy="0"
       r="1"
       href="#P"
       gradientTransform="matrix(-818.677,0,0,-818.677,2542.76,1688.95)">
      <stop
         stop-color="#0d094c"
         id="stop27" />
      <stop
         offset="1"
         stop-color="#fff"
         id="stop28" />
    </radialGradient>
    <radialGradient
       id="g15"
       cx="0"
       cy="0"
       r="1"
       href="#P"
       gradientTransform="matrix(-818.677,0,0,-818.677,3176.475,1688.95)">
      <stop
         stop-color="#0d094c"
         id="stop29" />
      <stop
         offset="1"
         stop-color="#fff"
         id="stop30" />
    </radialGradient>
    <radialGradient
       id="g16"
       cx="0"
       cy="0"
       r="1"
       href="#P"
       gradientTransform="matrix(2802.402,1694.823,-1694.823,2802.402,549.902,849.412)">
      <stop
         stop-color="#3c1775"
         id="stop31" />
      <stop
         offset="1"
         stop-color="#0d094c"
         id="stop32" />
    </radialGradient>
    <radialGradient
       id="g17"
       cx="0"
       cy="0"
       r="1"
       href="#P"
       gradientTransform="matrix(873.448,0,0,873.448,2938.735,1854.838)">
      <stop
         stop-color="#0d094c"
         id="stop33" />
      <stop
         offset="1"
         stop-color="#fff"
         id="stop34" />
    </radialGradient>
    <radialGradient
       id="g18"
       cx="0"
       cy="0"
       r="1"
       href="#P"
       gradientTransform="matrix(584.518,0,0,584.518,2295.728,1996.076)">
      <stop
         stop-color="#0d094c"
         id="stop35" />
      <stop
         offset="1"
         stop-color="#fff"
         id="stop36" />
    </radialGradient>
    <radialGradient
       id="g19"
       cx="0"
       cy="0"
       r="1"
       href="#P"
       gradientTransform="matrix(584.518,0,0,584.518,1399.978,2025.811)">
      <stop
         stop-color="#0d094c"
         id="stop37" />
      <stop
         offset="1"
         stop-color="#fff"
         id="stop38" />
    </radialGradient>
    <radialGradient
       id="g20"
       cx="0"
       cy="0"
       r="1"
       href="#P"
       gradientTransform="matrix(818.676,0,0,818.676,771.839,2025.811)">
      <stop
         stop-color="#0d094c"
         id="stop39" />
      <stop
         offset="1"
         stop-color="#fff"
         id="stop40" />
    </radialGradient>
    <radialGradient
       id="g21"
       cx="0"
       cy="0"
       r="1"
       href="#P"
       gradientTransform="matrix(818.676,0,0,818.676,1810.843,2243.734)">
      <stop
         stop-color="#0d094c"
         id="stop41" />
      <stop
         offset="1"
         stop-color="#fff"
         id="stop42" />
    </radialGradient>
    <radialGradient
       id="g22"
       cx="0"
       cy="0"
       r="1"
       href="#P"
       gradientTransform="matrix(818.677,0,0,818.677,138.124,2025.811)">
      <stop
         stop-color="#0d094c"
         id="stop43" />
      <stop
         offset="1"
         stop-color="#fff"
         id="stop44" />
    </radialGradient>
    <radialGradient
       id="g23"
       cx="0"
       cy="0"
       r="1"
       href="#P"
       gradientTransform="matrix(2363.959,2498.401,-2498.401,2363.959,697.295,816.829)">
      <stop
         stop-color="#3c1775"
         id="stop45" />
      <stop
         offset="1"
         stop-color="#0d094c"
         id="stop46" />
    </radialGradient>
    <clipPath
       clipPathUnits="userSpaceOnUse"
       id="cp2">
      <path
         d="m 1.87,2.83 h 3324.26 v 2128 H 1.87 Z"
         id="path46" />
    </clipPath>
    <linearGradient
       id="g24"
       x2="1"
       href="#P"
       gradientTransform="matrix(4223.297,0,0,1009.471,-705.284,826.09)">
      <stop
         stop-color="#e20a9a"
         stop-opacity="1"
         id="stop47" />
      <stop
         offset="1"
         stop-color="#0d094c"
         stop-opacity="0"
         id="stop48" />
    </linearGradient>
    <linearGradient
       id="g25"
       x2="1"
       href="#P"
       gradientTransform="matrix(4502.133,0,0,715.622,-524.346,1161.538)">
      <stop
         stop-color="#0d094c"
         stop-opacity="0"
         id="stop49" />
      <stop
         offset="1"
         stop-color="#e20a9a"
         stop-opacity="1"
         id="stop50" />
    </linearGradient>
    <linearGradient
       id="g26"
       x2="1"
       href="#P"
       gradientTransform="matrix(4026.187,0,0,1063.397,-281.785,385.389)">
      <stop
         stop-color="#0d094c"
         stop-opacity="0"
         id="stop51" />
      <stop
         offset="1"
         stop-color="#e20a9a"
         stop-opacity="1"
         id="stop52" />
    </linearGradient>
    <linearGradient
       id="g27"
       x2="1"
       href="#P"
       gradientTransform="matrix(3698.219,0,0,732.861,-243.001,1585.931)">
      <stop
         stop-color="#e20a9a"
         stop-opacity="1"
         id="stop53" />
      <stop
         offset="1"
         stop-color="#0d094c"
         stop-opacity="0"
         id="stop54" />
    </linearGradient>
    <clipPath
       clipPathUnits="userSpaceOnUse"
       id="clipPath81">
      <g
         id="g82">
        <path
           d="m 1.87,2.83 h 3324.26 v 2128 H 1.87 Z"
           id="path81" />
      </g>
    </clipPath>
    <clipPath
       clipPathUnits="userSpaceOnUse"
       id="clipPath82">
      <g
         id="g83">
        <path
           d="m 1.87,2.83 h 3324.26 v 2128 H 1.87 Z"
           id="path82" />
      </g>
    </clipPath>
    <clipPath
       clipPathUnits="userSpaceOnUse"
       id="clipPath83">
      <g
         id="g84">
        <path
           d="m 1.87,2.83 h 3324.26 v 2128 H 1.87 Z"
           id="path83" />
      </g>
    </clipPath>
    <clipPath
       clipPathUnits="userSpaceOnUse"
       id="clipPath84">
      <g
         id="g85">
        <path
           d="m 1.87,2.83 h 3324.26 v 2128 H 1.87 Z"
           id="path84" />
      </g>
    </clipPath>
    <clipPath
       clipPathUnits="userSpaceOnUse"
       id="clipPath85">
      <g
         id="g86">
        <path
           d="m 1.87,2.83 h 3324.26 v 2128 H 1.87 Z"
           id="path85" />
      </g>
    </clipPath>
    <clipPath
       clipPathUnits="userSpaceOnUse"
       id="clipPath86">
      <g
         id="g87">
        <path
           d="m 1.87,2.83 h 3324.26 v 2128 H 1.87 Z"
           id="path86" />
      </g>
    </clipPath>
    <clipPath
       clipPathUnits="userSpaceOnUse"
       id="clipPath87">
      <g
         id="g88">
        <path
           d="m 1.87,2.83 h 3324.26 v 2128 H 1.87 Z"
           id="path87" />
      </g>
    </clipPath>
    <clipPath
       clipPathUnits="userSpaceOnUse"
       id="clipPath88">
      <g
         id="g89">
        <path
           d="m 1.87,2.83 h 3324.26 v 2128 H 1.87 Z"
           id="path88" />
      </g>
    </clipPath>
    <clipPath
       clipPathUnits="userSpaceOnUse"
       id="clipPath89">
      <g
         id="g90">
        <path
           d="m 1.87,2.83 h 3324.26 v 2128 H 1.87 Z"
           id="path89" />
      </g>
    </clipPath>
    <clipPath
       clipPathUnits="userSpaceOnUse"
       id="clipPath90">
      <g
         id="g91">
        <path
           d="m 1.87,2.83 h 3324.26 v 2128 H 1.87 Z"
           id="path90" />
      </g>
    </clipPath>
    <clipPath
       clipPathUnits="userSpaceOnUse"
       id="clipPath91">
      <g
         id="g92">
        <path
           d="m 1.87,2.83 h 3324.26 v 2128 H 1.87 Z"
           id="path91" />
      </g>
    </clipPath>
    <clipPath
       clipPathUnits="userSpaceOnUse"
       id="clipPath92">
      <g
         id="g93">
        <path
           d="m 1.87,2.83 h 3324.26 v 2128 H 1.87 Z"
           id="path92" />
      </g>
    </clipPath>
    <clipPath
       clipPathUnits="userSpaceOnUse"
       id="clipPath93">
      <g
         id="g94">
        <path
           d="m 1.87,2.83 h 3324.26 v 2128 H 1.87 Z"
           id="path93" />
      </g>
    </clipPath>
    <clipPath
       clipPathUnits="userSpaceOnUse"
       id="clipPath94">
      <g
         id="g95">
        <path
           d="m 1.87,2.83 h 3324.26 v 2128 H 1.87 Z"
           id="path94" />
      </g>
    </clipPath>
    <clipPath
       clipPathUnits="userSpaceOnUse"
       id="clipPath97">
      <g
         id="g99">
        <g
           id="g98">
          <path
             d="m 1.87,2.83 h 3324.26 v 2128 H 1.87 Z"
             id="path97" />
        </g>
      </g>
    </clipPath>
    <clipPath
       clipPathUnits="userSpaceOnUse"
       id="clipPath99">
      <g
         id="g101">
        <g
           id="g100">
          <path
             d="m 1.87,2.83 h 3324.26 v 2128 H 1.87 Z"
             id="path99" />
        </g>
      </g>
    </clipPath>
    <clipPath
       clipPathUnits="userSpaceOnUse"
       id="clipPath101">
      <g
         id="g103">
        <g
           id="g102">
          <path
             d="m 1.87,2.83 h 3324.26 v 2128 H 1.87 Z"
             id="path101" />
        </g>
      </g>
    </clipPath>
    <clipPath
       clipPathUnits="userSpaceOnUse"
       id="clipPath103">
      <g
         id="g105">
        <g
           id="g104">
          <path
             d="m 1.87,2.83 h 3324.26 v 2128 H 1.87 Z"
             id="path103" />
        </g>
      </g>
    </clipPath>
    <clipPath
       clipPathUnits="userSpaceOnUse"
       id="clipPath105">
      <g
         id="g107">
        <g
           id="g106">
          <path
             d="m 1.87,2.83 h 3324.26 v 2128 H 1.87 Z"
             id="path105" />
        </g>
      </g>
    </clipPath>
    <clipPath
       clipPathUnits="userSpaceOnUse"
       id="clipPath107">
      <g
         id="g109">
        <g
           id="g108">
          <path
             d="m 1.87,2.83 h 3324.26 v 2128 H 1.87 Z"
             id="path107" />
        </g>
      </g>
    </clipPath>
    <clipPath
       clipPathUnits="userSpaceOnUse"
       id="clipPath109">
      <g
         id="g111">
        <g
           id="g110">
          <path
             d="m 1.87,2.83 h 3324.26 v 2128 H 1.87 Z"
             id="path109" />
        </g>
      </g>
    </clipPath>
    <clipPath
       clipPathUnits="userSpaceOnUse"
       id="clipPath111">
      <g
         id="g113">
        <g
           id="g112">
          <path
             d="m 1.87,2.83 h 3324.26 v 2128 H 1.87 Z"
             id="path111" />
        </g>
      </g>
    </clipPath>
  </defs>
  <style
     id="style54">.a{fill:url(#g1)}.b{mix-blend-mode:multiply;fill:url(#g2)}.c{mix-blend-mode:multiply;fill:url(#g3)}.d{mix-blend-mode:multiply;fill:url(#g4)}.e{mix-blend-mode:multiply;fill:url(#g5)}.f{mix-blend-mode:multiply;fill:url(#g6)}.g{mix-blend-mode:multiply;fill:url(#g7)}.h{mix-blend-mode:multiply;fill:url(#g8)}.i{fill:url(#g9)}.j{mix-blend-mode:multiply;fill:url(#g10)}.k{mix-blend-mode:multiply;fill:url(#g11)}.l{mix-blend-mode:multiply;fill:url(#g12)}.m{mix-blend-mode:multiply;fill:url(#g13)}.n{mix-blend-mode:multiply;fill:url(#g14)}.o{mix-blend-mode:multiply;fill:url(#g15)}.p{fill:url(#g16)}.q{mix-blend-mode:multiply;fill:url(#g17)}.r{mix-blend-mode:multiply;fill:url(#g18)}.s{mix-blend-mode:multiply;fill:url(#g19)}.t{mix-blend-mode:multiply;fill:url(#g20)}.u{mix-blend-mode:multiply;fill:url(#g21)}.v{mix-blend-mode:multiply;fill:url(#g22)}.w{fill:url(#g23)}.x{fill:none;stroke:url(#g24);stroke-linecap:round;stroke-linejoin:round;stroke-width:4}.y{fill:none;stroke:url(#g25);stroke-linecap:round;stroke-linejoin:round;stroke-width:4}.z{fill:none;stroke:url(#g26);stroke-linecap:round;stroke-linejoin:round;stroke-width:4}.A{fill:none;stroke:url(#g27);stroke-linecap:round;stroke-linejoin:round;stroke-width:4}</style>
  <g
     id="g114"
     transform="translate(-302.39174,-3124.8869)">
    <path
       class="a"
       d="M 302.42174,3124.887 H 3626.6217 v 2128 H 302.42174 Z"
       id="path54"
       style="fill:url(#g1)" />
    <path
       class="b"
       d="m 4286.3,987.2 c 47.2,480 -303.7,907.5 -783.7,954.7 -480.1,47.2 -907.6,-303.7 -954.8,-783.7 -47.2,-480.1 303.7,-907.6 783.8,-954.8 480,-47.2 907.5,303.7 954.7,783.8 z"
       id="path55"
       style="opacity:0.3;fill:url(#g2)"
       clip-path="url(#clipPath111)"
       transform="translate(300.52174,3122.087)" />
    <path
       class="c"
       d="m 3372.7,1218.9 c 31.6,321.3 -203.3,607.4 -524.5,639 -321.3,31.6 -607.3,-203.3 -638.9,-524.5 -31.6,-321.3 203.2,-607.4 524.5,-639 321.2,-31.6 607.3,203.3 638.9,524.5 z"
       id="path56"
       style="opacity:0.3;fill:url(#g3)"
       clip-path="url(#clipPath109)"
       transform="translate(300.52174,3122.087)" />
    <path
       class="d"
       d="m 3130.6,1349.2 c 31.6,321.3 -203.3,607.3 -524.5,638.9 -321.3,31.6 -607.4,-203.2 -638.9,-524.5 -31.6,-321.2 203.2,-607.3 524.5,-638.9 321.2,-31.6 607.3,203.2 638.9,524.5 z"
       id="path57"
       style="opacity:0.3;fill:url(#g4)"
       clip-path="url(#clipPath107)"
       transform="translate(300.52174,3122.087)" />
    <path
       class="e"
       d="m 2484.1,1336.2 c 31.6,321.3 -203.2,607.3 -524.5,638.9 -321.2,31.6 -607.3,-203.2 -638.9,-524.5 -31.6,-321.2 203.2,-607.3 524.5,-638.9 321.3,-31.6 607.3,203.2 638.9,524.5 z"
       id="path58"
       style="opacity:0.3;fill:url(#g5)"
       clip-path="url(#clipPath105)"
       transform="translate(300.52174,3122.087)" />
    <path
       class="f"
       d="m 2092.1,1374.8 c 44.2,449.9 -284.7,850.6 -734.7,894.9 C 907.5,2313.9 506.8,1985 462.6,1535 418.3,1085.1 747.2,684.4 1197.2,640.2 c 449.9,-44.3 850.6,284.6 894.9,734.6 z"
       id="path59"
       style="opacity:0.3;fill:url(#g6)"
       clip-path="url(#clipPath103)"
       transform="translate(300.52174,3122.087)" />
    <path
       class="g"
       d="M 1687.6,1394.5 C 1731.9,1844.4 1403,2245.1 953,2289.3 503,2333.6 102.4,2004.7 58.1,1554.7 13.9,1104.8 342.8,704.1 792.8,659.8 c 449.9,-44.2 850.6,284.7 894.8,734.7 z"
       id="path60"
       style="opacity:0.3;fill:url(#g7)"
       clip-path="url(#clipPath101)"
       transform="translate(300.52174,3122.087)" />
    <path
       class="h"
       d="m 1461.4,1436.8 c 44.2,450 -284.7,850.6 -734.6,894.9 -450,44.2 -850.7,-284.7 -894.9,-734.6 -44.3,-450 284.6,-850.7 734.6,-894.9 450,-44.3 850.6,284.6 894.9,734.6 z"
       id="path61"
       style="opacity:0.3;fill:url(#g8)"
       clip-path="url(#clipPath99)"
       transform="translate(300.52174,3122.087)" />
    <path
       class="i"
       d="m 179.8,1698.9 c -16.2,-140.2 19.3,-281.2 94.9,-400.4 124.1,-195.7 396.6,-484.3 875.9,-344.7 699.7,203.8 1282.8,322 1752.2,-183.5 469.4,-505.6 1037.4,-540.5 1241.4,-175.2 204,365.4 357.1,1239.2 -509.5,1275.9 -866.5,36.7 -1371.4,-425.3 -1948.2,-25 -516.8,358.6 -1436.8,457.2 -1506.7,-147.1 z"
       id="path62"
       style="opacity:0.3;fill:url(#g9)"
       clip-path="url(#clipPath97)"
       transform="translate(300.52174,3122.087)" />
    <path
       class="j"
       d="m 375.9,2391.4 c -483.1,0 -873.5,-390.4 -873.5,-873.4 0,-483 390.4,-873.5 873.5,-873.5 483,0 873.4,390.5 873.4,873.5 0,483 -390.4,873.4 -873.4,873.4 z"
       id="path63"
       style="fill:url(#g10)"
       clip-path="url(#clipPath94)"
       transform="translate(300.52174,3122.087)" />
    <path
       class="k"
       d="m 1018.9,2243.7 c -323.3,0 -584.5,-261.2 -584.5,-584.5 0,-323.2 261.2,-584.5 584.5,-584.5 323.2,0 584.5,261.3 584.5,584.5 0,323.3 -261.3,584.5 -584.5,584.5 z"
       id="path64"
       style="fill:url(#g11)"
       clip-path="url(#clipPath93)"
       transform="translate(300.52174,3122.087)" />
    <path
       class="l"
       d="m 1440.9,2273.5 c -323.3,0 -584.6,-261.3 -584.6,-584.6 0,-323.2 261.3,-584.5 584.6,-584.5 323.2,0 584.5,261.3 584.5,584.5 0,323.3 -261.3,584.6 -584.5,584.6 z"
       id="path65"
       style="fill:url(#g12)"
       clip-path="url(#clipPath92)"
       transform="translate(300.52174,3122.087)" />
    <path
       class="m"
       d="m 1914.6,2273.5 c -323.2,0 -584.5,-261.3 -584.5,-584.6 0,-323.2 261.3,-584.5 584.5,-584.5 323.3,0 584.5,261.3 584.5,584.5 0,323.3 -261.2,584.6 -584.5,584.6 z"
       id="path66"
       style="fill:url(#g13)"
       clip-path="url(#clipPath91)"
       transform="translate(300.52174,3122.087)" />
    <path
       class="n"
       d="m 2542.8,2507.6 c -452.8,0 -818.7,-365.9 -818.7,-818.6 0,-452.8 365.9,-818.7 818.7,-818.7 452.7,0 818.6,365.9 818.6,818.7 0,452.7 -365.9,818.6 -818.6,818.6 z"
       id="path67"
       style="fill:url(#g14)"
       clip-path="url(#clipPath90)"
       transform="translate(300.52174,3122.087)" />
    <path
       class="o"
       d="m 3176.5,2507.6 c -452.8,0 -818.7,-365.9 -818.7,-818.6 0,-452.8 365.9,-818.7 818.7,-818.7 452.7,0 818.7,365.9 818.7,818.7 0,452.7 -366,818.6 -818.7,818.6 z"
       id="path68"
       style="fill:url(#g15)"
       clip-path="url(#clipPath89)"
       transform="translate(300.52174,3122.087)" />
    <path
       class="p"
       d="m 3658.9,1824.4 c 2.4,-141.1 -46.7,-278 -133.6,-389.2 C 3382.6,1252.6 3083.2,992 2619.8,1177.8 1943.4,1449.2 1374.7,1623.9 858.1,1166.7 341.4,709.5 -227.2,730.3 -394.5,1113.9 c -167.3,383.6 -234.2,1268.2 631.9,1219.9 866,-48.3 1323.1,-557.5 1936.4,-215.6 549.4,306.3 1474.6,314.4 1485.1,-293.8 z"
       id="path69"
       style="fill:url(#g16)"
       clip-path="url(#clipPath88)"
       transform="translate(300.52174,3122.087)" />
    <path
       class="q"
       d="m 2938.7,2728.3 c -483,0 -873.4,-390.4 -873.4,-873.5 0,-483 390.4,-873.4 873.4,-873.4 483.1,0 873.5,390.4 873.5,873.4 0,483.1 -390.4,873.5 -873.5,873.5 z"
       id="path70"
       style="fill:url(#g17)"
       clip-path="url(#clipPath87)"
       transform="translate(300.52174,3122.087)" />
    <path
       class="r"
       d="m 2295.7,2580.6 c -323.2,0 -584.5,-261.3 -584.5,-584.5 0,-323.3 261.3,-584.5 584.5,-584.5 323.3,0 584.5,261.2 584.5,584.5 0,323.2 -261.2,584.5 -584.5,584.5 z"
       id="path71"
       style="fill:url(#g18)"
       clip-path="url(#clipPath86)"
       transform="translate(300.52174,3122.087)" />
    <path
       class="s"
       d="m 1400,2610.3 c -323.3,0 -584.5,-261.3 -584.5,-584.5 0,-323.2 261.2,-584.5 584.5,-584.5 323.2,0 584.5,261.3 584.5,584.5 0,323.2 -261.3,584.5 -584.5,584.5 z"
       id="path72"
       style="fill:url(#g19)"
       clip-path="url(#clipPath85)"
       transform="translate(300.52174,3122.087)" />
    <path
       class="t"
       d="m 771.8,2844.5 c -452.7,0 -818.6,-366 -818.6,-818.7 0,-452.7 365.9,-818.7 818.6,-818.7 452.8,0 818.7,366 818.7,818.7 0,452.7 -365.9,818.7 -818.7,818.7 z"
       id="path73"
       style="fill:url(#g20)"
       clip-path="url(#clipPath84)"
       transform="translate(300.52174,3122.087)" />
    <path
       class="u"
       d="m 1810.8,3062.4 c -452.7,0 -818.6,-365.9 -818.6,-818.7 0,-452.7 365.9,-818.6 818.6,-818.6 452.8,0 818.7,365.9 818.7,818.6 0,452.8 -365.9,818.7 -818.7,818.7 z"
       id="path74"
       style="fill:url(#g21)"
       clip-path="url(#clipPath83)"
       transform="translate(300.52174,3122.087)" />
    <path
       class="v"
       d="m 138.1,2844.5 c -452.7,0 -818.7,-366 -818.7,-818.7 0,-452.7 366,-818.7 818.7,-818.7 452.8,0 818.7,366 818.7,818.7 0,452.7 -365.9,818.7 -818.7,818.7 z"
       id="path75"
       style="fill:url(#g22)"
       clip-path="url(#clipPath82)"
       transform="translate(300.52174,3122.087)" />
    <path
       class="w"
       d="m -336.3,2161.2 c -2.4,-141.1 46.7,-278 133.6,-389.1 142.7,-182.7 442.1,-443.2 905.5,-257.4 676.4,271.3 1245.1,446 1761.7,-11.1 516.7,-457.2 1085.3,-436.4 1252.6,-52.8 167.2,383.6 234.2,1268.2 -631.9,1219.8 -866,-48.3 -1323.1,-557.5 -1936.4,-215.5 -549.4,306.3 -1474.6,314.3 -1485.1,-293.9 z"
       id="path76"
       style="fill:url(#g23)"
       clip-path="url(#clipPath81)"
       transform="translate(300.52174,3122.087)" />
    <g
       clip-path="url(#cp2)"
       id="g80"
       transform="translate(300.52174,3122.087)">
      <path
         class="x"
         d="m -705.3,1121.9 c 0,0 606.5,-577.3 1345.2,-119 641.9,413.2 1238,483.3 1955.3,15 717.4,-468.4 1185.7,226.7 762,817.7"
         id="path77"
         style="stroke:url(#g24)" />
      <path
         class="y"
         d="m 3977.8,1299.1 c -456.2,-96.7 -840.2,-304.3 -1397.7,114.3 -557.5,418.6 -751.7,614.2 -1740.4,329.9 -988.6,-284.3 -1364,27.9 -1364,27.9"
         id="path78"
         style="stroke:url(#g25)" />
      <path
         class="z"
         d="m -281.8,1156 c 0,0 244.8,-101.6 567.3,-38.3 322.6,63.4 653.5,307.2 1278.8,330.9 C 2474.1,1484 3116.3,197.1 3744.4,409"
         id="path79"
         style="stroke:url(#g26)" />
      <path
         class="A"
         d="m 3455.2,1648 c 0,0 -409,-226.5 -739.7,185 -330.7,411.5 -815.6,584.5 -1364,430.1 C 803.1,2108.6 578.4,1661 -243,1887.7"
         id="path80"
         style="stroke:url(#g27)" />
    </g>
  </g>
</svg>
